<?xml version="1.0" encoding="UTF-8"?>
<svg xmlns="http://www.w3.org/2000/svg" xmlns:xlink="http://www.w3.org/1999/xlink" width="854" height="480" viewBox="0 0 854 480">
<defs>
<g>
<g id="glyph-0-0">
<path d="M 2.714844 -2.242188 L 2.566406 -2.242188 C 2.554688 -2.296875 2.53125 -2.359375 2.496094 -2.429688 C 2.460938 -2.5 2.425781 -2.570312 2.382812 -2.632812 C 2.339844 -2.699219 2.292969 -2.757812 2.238281 -2.808594 C 2.1875 -2.855469 2.136719 -2.886719 2.089844 -2.890625 C 2.046875 -2.898438 1.988281 -2.902344 1.921875 -2.90625 C 1.851562 -2.910156 1.789062 -2.910156 1.730469 -2.910156 L 1.605469 -2.910156 L 1.605469 -0.445312 C 1.605469 -0.398438 1.617188 -0.355469 1.636719 -0.316406 C 1.65625 -0.277344 1.691406 -0.246094 1.742188 -0.222656 C 1.769531 -0.214844 1.824219 -0.199219 1.90625 -0.183594 C 1.988281 -0.164062 2.054688 -0.15625 2.101562 -0.152344 L 2.101562 0 L 0.648438 0 L 0.648438 -0.152344 C 0.6875 -0.15625 0.75 -0.164062 0.832031 -0.171875 C 0.914062 -0.179688 0.972656 -0.191406 1.003906 -0.203125 C 1.050781 -0.222656 1.085938 -0.25 1.109375 -0.285156 C 1.132812 -0.320312 1.144531 -0.367188 1.144531 -0.425781 L 1.144531 -2.910156 L 1.019531 -2.910156 C 0.972656 -2.910156 0.917969 -2.910156 0.851562 -2.90625 C 0.785156 -2.90625 0.71875 -2.898438 0.660156 -2.890625 C 0.613281 -2.886719 0.5625 -2.859375 0.511719 -2.808594 C 0.460938 -2.753906 0.414062 -2.695312 0.367188 -2.632812 C 0.324219 -2.566406 0.289062 -2.496094 0.253906 -2.425781 C 0.21875 -2.351562 0.199219 -2.292969 0.183594 -2.242188 L 0.03125 -2.242188 L 0.03125 -3.078125 L 2.714844 -3.078125 Z "/>
</g>
<g id="glyph-0-1">
<path d="M 3.082031 0 L 1.804688 0 L 1.804688 -0.152344 C 1.917969 -0.160156 2.011719 -0.175781 2.085938 -0.199219 C 2.160156 -0.21875 2.195312 -0.246094 2.195312 -0.277344 C 2.195312 -0.289062 2.195312 -0.308594 2.191406 -0.324219 C 2.1875 -0.34375 2.183594 -0.359375 2.179688 -0.375 L 1.925781 -1.066406 L 0.84375 -1.066406 C 0.800781 -0.964844 0.769531 -0.875 0.746094 -0.800781 C 0.71875 -0.726562 0.695312 -0.65625 0.675781 -0.59375 C 0.65625 -0.53125 0.644531 -0.480469 0.636719 -0.441406 C 0.628906 -0.402344 0.625 -0.371094 0.625 -0.34375 C 0.625 -0.289062 0.671875 -0.242188 0.761719 -0.210938 C 0.855469 -0.179688 0.957031 -0.160156 1.070312 -0.152344 L 1.070312 0 L -0.0898438 0 L -0.0898438 -0.152344 C -0.0507812 -0.15625 -0.00390625 -0.164062 0.0507812 -0.179688 C 0.109375 -0.191406 0.15625 -0.210938 0.191406 -0.234375 C 0.25 -0.273438 0.292969 -0.3125 0.324219 -0.355469 C 0.355469 -0.398438 0.386719 -0.457031 0.417969 -0.535156 C 0.574219 -0.921875 0.746094 -1.355469 0.929688 -1.835938 C 1.117188 -2.316406 1.285156 -2.746094 1.429688 -3.121094 L 1.605469 -3.121094 L 2.628906 -0.464844 C 2.652344 -0.410156 2.675781 -0.363281 2.703125 -0.328125 C 2.730469 -0.296875 2.769531 -0.261719 2.820312 -0.226562 C 2.851562 -0.207031 2.894531 -0.191406 2.949219 -0.175781 C 3.003906 -0.164062 3.046875 -0.15625 3.082031 -0.152344 L 3.082031 0 M 1.84375 -1.257812 L 1.378906 -2.453125 L 0.917969 -1.257812 Z "/>
</g>
<g id="glyph-0-2">
<path d="M 1.558594 0 L 0.171875 0 L 0.171875 -0.152344 C 0.210938 -0.15625 0.265625 -0.160156 0.339844 -0.167969 C 0.414062 -0.171875 0.464844 -0.179688 0.496094 -0.191406 C 0.542969 -0.210938 0.578125 -0.238281 0.601562 -0.269531 C 0.621094 -0.300781 0.632812 -0.347656 0.632812 -0.40625 L 0.632812 -2.636719 C 0.632812 -2.6875 0.625 -2.730469 0.609375 -2.761719 C 0.59375 -2.796875 0.554688 -2.824219 0.496094 -2.847656 C 0.453125 -2.867188 0.398438 -2.882812 0.332031 -2.898438 C 0.265625 -2.914062 0.214844 -2.921875 0.171875 -2.925781 L 0.171875 -3.078125 L 1.558594 -3.078125 L 1.558594 -2.925781 C 1.511719 -2.921875 1.460938 -2.917969 1.398438 -2.910156 C 1.335938 -2.898438 1.28125 -2.886719 1.234375 -2.871094 C 1.179688 -2.855469 1.144531 -2.828125 1.125 -2.789062 C 1.105469 -2.75 1.097656 -2.707031 1.097656 -2.65625 L 1.097656 -0.429688 C 1.097656 -0.382812 1.105469 -0.339844 1.128906 -0.300781 C 1.148438 -0.265625 1.183594 -0.238281 1.234375 -0.214844 C 1.265625 -0.203125 1.316406 -0.191406 1.382812 -0.175781 C 1.453125 -0.164062 1.511719 -0.15625 1.558594 -0.152344 Z "/>
</g>
<g id="glyph-0-3">
<path d="M 2.683594 -0.914062 L 2.617188 0 L 0.210938 0 L 0.210938 -0.152344 C 0.246094 -0.15625 0.296875 -0.160156 0.363281 -0.167969 C 0.429688 -0.175781 0.476562 -0.1875 0.5 -0.199219 C 0.542969 -0.214844 0.574219 -0.242188 0.59375 -0.28125 C 0.613281 -0.316406 0.625 -0.363281 0.625 -0.417969 L 0.625 -2.625 C 0.625 -2.671875 0.617188 -2.714844 0.601562 -2.753906 C 0.582031 -2.792969 0.550781 -2.820312 0.5 -2.84375 C 0.46875 -2.863281 0.421875 -2.878906 0.359375 -2.894531 C 0.300781 -2.914062 0.25 -2.921875 0.210938 -2.925781 L 0.210938 -3.078125 L 1.511719 -3.078125 L 1.511719 -2.925781 C 1.472656 -2.921875 1.417969 -2.917969 1.355469 -2.902344 C 1.289062 -2.890625 1.242188 -2.878906 1.214844 -2.867188 C 1.164062 -2.851562 1.132812 -2.820312 1.113281 -2.78125 C 1.097656 -2.738281 1.085938 -2.691406 1.085938 -2.644531 L 1.085938 -0.578125 C 1.085938 -0.480469 1.09375 -0.40625 1.101562 -0.355469 C 1.109375 -0.300781 1.132812 -0.261719 1.167969 -0.230469 C 1.199219 -0.207031 1.25 -0.1875 1.316406 -0.179688 C 1.382812 -0.171875 1.472656 -0.167969 1.59375 -0.167969 C 1.644531 -0.167969 1.703125 -0.171875 1.761719 -0.171875 C 1.816406 -0.175781 1.871094 -0.183594 1.925781 -0.191406 C 1.976562 -0.199219 2.023438 -0.210938 2.066406 -0.226562 C 2.105469 -0.242188 2.140625 -0.261719 2.160156 -0.285156 C 2.21875 -0.351562 2.289062 -0.453125 2.367188 -0.585938 C 2.445312 -0.722656 2.5 -0.832031 2.53125 -0.914062 Z "/>
</g>
</g>
</defs>
<g fill="rgb(96.862745%, 85.098039%, 43.529412%)" fill-opacity="1">
<use xlink:href="#glyph-0-0" x="30" y="24.074219"/>
<use xlink:href="#glyph-0-1" x="33" y="24.074219"/>
<use xlink:href="#glyph-0-2" x="36" y="24.074219"/>
<use xlink:href="#glyph-0-3" x="38" y="24.074219"/>
</g>
</svg>
